<?xml version="1.0" encoding="UTF-8"?>
<svg version="1.1" xmlns="http://www.w3.org/2000/svg" width="1000" height="1000">
<path d="M0 0 C2.43984498 2.00415838 2.97123955 2.91371864 4 6 C4.15336416 8.394185 4.2740245 10.79053394 4.375 13.1875 C4.70885434 22.59697101 4.70885434 22.59697101 9.44921875 30.41015625 C31.1367201 45.79369842 77.31045832 49.97035326 103 47 C106.89677105 45.94638935 109.73310515 44.34386741 113 42 C113.54495117 41.61392578 114.08990234 41.22785156 114.65136719 40.83007812 C118.31132691 38.23555465 118.31132691 38.23555465 121.91723633 35.56689453 C130.48193235 29.16349924 138.90100498 27.85802057 149.375 27.3125 C150.29539062 27.25255859 151.21578125 27.19261719 152.1640625 27.13085938 C158.38696247 26.80637959 163.62533708 26.84073292 169.0390625 30.3046875 C180.98732661 42.13523473 182.19350722 61.06907722 183.625 76.9375 C183.74617187 78.16017578 183.86734375 79.38285156 183.9921875 80.64257812 C185.99137349 101.9056595 186.15762192 123.22118734 186.18594956 144.56142032 C186.19201488 148.31940362 186.20366068 152.07737065 186.21458435 155.83534241 C186.23282513 162.35581959 186.24772542 168.87629729 186.26036072 175.39678764 C186.27903221 184.9980156 186.30370568 194.59922181 186.32973462 204.20043231 C186.37250753 220.01569393 186.41153227 235.83096232 186.44775391 251.64624023 C186.44991671 252.59012936 186.45207951 253.53401849 186.45430785 254.50651032 C186.46303274 258.3163911 186.4717513 262.12627188 186.48046073 265.93615269 C186.5476077 295.26297517 186.61998589 324.58978431 186.69730669 353.91658168 C186.71168884 359.38400804 186.72566955 364.85143524 186.73934251 370.31886341 C186.84219017 411.38408808 186.99252988 452.44843483 187.26970041 493.51288913 C187.2889413 496.36533278 187.30801703 499.2177775 187.32705784 502.0702225 C187.44212131 519.27050818 187.5603702 536.47075946 187.69736475 553.67088597 C187.74984065 560.27488324 187.79902132 566.87889961 187.84574181 573.48294009 C187.87798641 578.00367782 187.91477666 582.52434585 187.95529959 587.04501657 C187.98427862 590.42675772 188.00644278 593.80853741 188.02966309 597.19032288 C188.04790548 598.97829423 188.04790548 598.97829423 188.0665164 600.80238622 C188.09989994 606.63307782 187.98901598 612.24580551 187 618 C186 619 186 619 183.54454565 619.12467116 C182.43911096 619.12451518 181.33367628 619.1243592 180.19474357 619.1241985 C178.92248864 619.12644579 177.65023371 619.12869308 176.33942559 619.13100848 C174.90627084 619.12844216 173.47311625 619.12578523 172.03996181 619.12304783 C170.52778687 619.12378656 169.01561209 619.12496417 167.50343779 619.12654433 C163.30948204 619.1296341 159.11555026 619.12642116 154.92159628 619.12226619 C150.37354703 619.11884955 145.82550035 619.12119942 141.27745062 619.12284368 C133.29369082 619.12492359 125.30993845 619.12326318 117.3261795 619.11920547 C105.45448574 619.11318844 93.5827967 619.11286799 81.71110169 619.11374746 C61.74429381 619.11506366 41.77748922 619.11171125 21.8106823 619.10573006 C2.03107627 619.09982008 -17.74852839 619.09596554 -37.5281353 619.09487724 C-38.75636981 619.0948085 -39.98460431 619.09473976 -41.25005805 619.09466894 C-47.48722888 619.09433062 -53.72439972 619.09402923 -59.96157055 619.09374207 C-104.1795408 619.0916397 -148.39750929 619.08489769 -192.61547852 619.07543945 C-203.33852131 619.07314784 -214.06156412 619.07087249 -224.78460693 619.06866455 C-225.44963172 619.0685276 -226.11465651 619.06839065 -226.79983356 619.06824955 C-257.70277736 619.06190798 -288.60572132 619.05818069 -319.5086656 619.05512976 C-321.51437966 619.05493169 -323.52009371 619.0547325 -325.52580777 619.05453308 C-338.81754047 619.05321332 -352.10927319 619.05193878 -365.4010059 619.05069422 C-392.47961248 619.04815777 -419.55821903 619.04533651 -446.63682556 619.04234314 C-447.88195146 619.04220585 -449.12707735 619.04206856 -450.40993434 619.04192711 C-533.60662364 619.03272103 -616.80331194 619.0168752 -700 619 C-700 618.34 -700 617.68 -700 617 C-701.32 617 -702.64 617 -704 617 C-704.84954765 605.08020399 -705.27406492 593.18368784 -705.53515625 581.23828125 C-705.57862376 579.34146844 -705.62222144 577.44465862 -705.66593933 575.54785156 C-705.80423116 569.46952805 -705.93403593 563.39103805 -706.0625 557.3125 C-706.08457016 556.2785397 -706.10664032 555.24457939 -706.12937927 554.17928696 C-706.70360844 527.22492666 -707.20404292 500.27347407 -707.25 473.3125 C-707.25508575 472.12790192 -707.26017151 470.94330383 -707.26541138 469.72280884 C-707.34002925 448.48476716 -706.53355257 427.19997244 -702.8125 406.25 C-702.60036865 405.01958984 -702.3882373 403.78917969 -702.16967773 402.52148438 C-698.91071742 384.21464926 -694.45703679 366.1532014 -689.6875 348.1875 C-689.44523682 347.26195312 -689.20297363 346.33640625 -688.95336914 345.3828125 C-688.72512451 344.54878906 -688.49687988 343.71476562 -688.26171875 342.85546875 C-688.06537842 342.12996826 -687.86903809 341.40446777 -687.66674805 340.65698242 C-687 339 -687 339 -685 338 C-683.95693384 335.58470883 -683.02244166 333.19340828 -682.12890625 330.72265625 C-681.55453206 329.17415093 -680.98015023 327.62564845 -680.40576172 326.07714844 C-679.95520416 324.85022278 -679.95520416 324.85022278 -679.49554443 323.59851074 C-677.92712023 319.33554054 -676.32996273 315.08342449 -674.73046875 310.83203125 C-674.41120422 309.98329437 -674.0919397 309.1345575 -673.76300049 308.26010132 C-643.91076216 229.21467053 -604.70478267 186.21036831 -528.71516418 150.51831055 C-508.64494487 141.09049523 -489.05564659 131.52064554 -470.6640625 119.06640625 C-447.834031 103.621617 -421.83822859 86.69094108 -393 91.9375 C-384.37911984 93.89156617 -376.06977942 96.93789573 -367.76953125 99.95092773 C-360.04427041 102.66202541 -353.15640813 104.51617963 -345.1171875 102.15234375 C-334.86209812 96.59601484 -328.06047766 89.20320968 -321 80 C-320.38439209 79.20480957 -320.38439209 79.20480957 -319.75634766 78.39355469 C-314.35357601 71.35767725 -309.93400012 64.26128208 -306.11132812 56.25878906 C-291.07415591 25.0889221 -291.07415591 25.0889221 -281 21 C-278.0625 20.5625 -278.0625 20.5625 -275 21 C-270.38257457 24.75435526 -268.81510507 28.35577144 -267.0625 33.8125 C-262.97816297 45.38587741 -257.88892194 51.03094253 -247 57 C-246.113125 57.49113281 -245.22625 57.98226562 -244.3125 58.48828125 C-226.59555296 67.41897059 -206.4501238 71.54946061 -187.25 76.0625 C-186.3877179 76.26839752 -185.52543579 76.47429504 -184.63702393 76.68643188 C-182.1618524 77.27396724 -179.68344563 77.84480141 -177.203125 78.41015625 C-176.46349518 78.58677795 -175.72386536 78.76339966 -174.96182251 78.94537354 C-170.67089483 79.89756351 -167.25622846 80.18514357 -163 79 C-159.32257397 75.50385553 -157.88010009 71.52135413 -156.5 66.75 C-156.29060791 66.0590625 -156.08121582 65.368125 -155.86547852 64.65625 C-154.33459796 59.48393195 -153.10986908 54.26315171 -151.9375 49 C-150.34213927 41.86695068 -148.73243186 34.98652506 -143 30 C-139.05133699 27.99262529 -134.42010583 26.04430144 -130 27 C-127.8125 28.9375 -127.8125 28.9375 -126.58203125 30.30859375 C-124.51246158 32.52124478 -122.26576857 34.48934019 -120 36.5 C-116.55880755 39.57652877 -113.2094988 42.6835179 -110 46 C-94.11035052 41.49793265 -80.91679826 30.57281108 -67.80078125 20.91015625 C-50.56924107 8.30934028 -22.34996872 -10.57459525 0 0 Z M-59 31 C-59 31.33 -59 31.66 -59 32 C-53.06 32 -47.12 32 -41 32 C-41 221.42 -41 410.84 -41 606 C-38.36 606 -35.72 606 -33 606 C-32.67 507 -32.34 408 -32 306 C-25.07 306 -18.14 306 -11 306 C-11.33 309.3 -11.66 312.6 -12 316 C-12.07683589 317.91873884 -12.12387912 319.83923927 -12.12304783 321.75951576 C-12.12503888 322.78961096 -12.12702993 323.81970617 -12.12908131 324.88101637 C-12.12616847 325.98026296 -12.12325563 327.07950956 -12.12025452 328.21206665 C-12.12110894 329.40484108 -12.12196337 330.59761552 -12.12284368 331.82653463 C-12.1241984 335.11041247 -12.1211022 338.39425014 -12.11606562 341.67812324 C-12.11172481 345.22944618 -12.11321011 348.78076743 -12.1139679 352.33209229 C-12.11449084 358.47610537 -12.11136808 364.62010779 -12.10573006 370.76411819 C-12.09758387 379.64719488 -12.09499664 388.53026644 -12.09374207 397.41334645 C-12.09155644 411.82748779 -12.08490964 426.24162346 -12.07543945 440.65576172 C-12.06625267 454.65315726 -12.05917803 468.65055126 -12.05493164 482.64794922 C-12.05466892 483.5115507 -12.05440619 484.37515218 -12.05413551 485.26492341 C-12.05283042 489.59759772 -12.05156672 493.93027204 -12.05032361 498.26294637 C-12.03996624 534.17530159 -12.02236125 570.08765035 -12 606 C-9.36 606 -6.72 606 -4 606 C-4 509.31 -4 412.62 -4 313 C-3.34 313 -2.68 313 -2 313 C-2 309.7 -2 306.4 -2 303 C4.93 303 11.86 303 19 303 C19 306.3 19 309.6 19 313 C18.34 313 17.68 313 17 313 C17 409.69 17 506.38 17 606 C18.65 606 20.3 606 22 606 C22 501.72 22 397.44 22 290 C28.93 290 35.86 290 43 290 C43 394.28 43 498.56 43 606 C63.46 606 83.92 606 105 606 C105 425.82 105 245.64 105 60 C101.535 60.495 101.535 60.495 98 61 C98 240.19 98 419.38 98 604 C91.07 604 84.14 604 77 604 C77 424.48 77 244.96 77 60 C74.69 59.67 72.38 59.34 70 59 C70 239.18 70 419.36 70 605 C63.07 605 56.14 605 49 605 C49 424.49 49 243.98 49 58 C52.96 58 56.92 58 61 58 C61 57.67 61 57.34 61 57 C60.14994385 56.87471924 59.2998877 56.74943848 58.42407227 56.62036133 C8.0193513 49.09905052 8.0193513 49.09905052 -2.0625 38.125 C-7.28552277 29.70076972 -7.63600134 21.6396886 -8 12 C-27.15204599 10.9820763 -44.02738441 19.62875218 -59 31 Z M-66.96484375 36.7734375 C-67.76470703 37.3509375 -68.56457031 37.9284375 -69.38867188 38.5234375 C-70.6503418 39.43996094 -70.6503418 39.43996094 -71.9375 40.375 C-72.77474609 40.97828125 -73.61199219 41.5815625 -74.47460938 42.203125 C-78.92533083 45.37737931 -78.92533083 45.37737931 -83 49 C-78.71 49 -74.42 49 -70 49 C-70 232.48 -70 415.96 -70 605 C-76.93 605 -83.86 605 -91 605 C-91 423.17 -91 241.34 -91 54 C-93.97 54.99 -96.94 55.98 -100 57 C-107.18875764 59.39625255 -116.5704892 59.16956879 -123.5 56.0625 C-127.97844942 53.4799275 -130.74738698 50.03329755 -133.625 45.79296875 C-134.07875 45.20128906 -134.5325 44.60960937 -135 44 C-135.66 44 -136.32 44 -137 44 C-139.73065768 54.31821635 -142.44293917 64.63717452 -145 75 C-139.39 75 -133.78 75 -128 75 C-128 250.23 -128 425.46 -128 606 C-106.22 606 -84.44 606 -62 606 C-62 417.24 -62 228.48 -62 34 C-63.90879977 34 -65.48090704 35.70120918 -66.96484375 36.7734375 Z M155 40 C155 226.45 155 412.9 155 605 C148.07 605 141.14 605 134 605 C134 419.87 134 234.74 134 44 C129.545 46.97 129.545 46.97 125 50 C119.9375 53.3125 119.9375 53.3125 117.65234375 54.80078125 C117.10707031 55.19652344 116.56179688 55.59226562 116 56 C116 56.33 116 56.66 116 57 C119.3 57 122.6 57 126 57 C126 238.17 126 419.34 126 606 C141.84 606 157.68 606 174 606 C174 604.35 174 602.7 174 601 C169.05 601 164.1 601 159 601 C159 424.78 159 248.56 159 67 C162.3 67 165.6 67 169 67 C168.47759683 57.98854525 167.04509717 47.40463379 160 41 C158.35 40.67 156.7 40.34 155 40 Z M-155.41928811 89.12582316 C-158.18952262 92.41036185 -157.9553849 95.636095 -157.8613348 99.78123283 C-157.86941171 100.65766835 -157.87748862 101.53410386 -157.88581029 102.43709803 C-157.90438671 105.38330411 -157.8729059 108.32684895 -157.84178162 111.2729187 C-157.84483342 113.4023756 -157.85096116 115.53182996 -157.85990578 117.66127026 C-157.87558569 123.51986021 -157.84752118 129.3775573 -157.81245935 135.23603344 C-157.78227832 141.55091541 -157.79245631 147.86574553 -157.79777527 154.18067932 C-157.8014488 165.12401782 -157.77969851 176.06702241 -157.7401104 187.01028061 C-157.6986957 198.48786679 -157.67174974 209.96533662 -157.6641407 221.44299698 C-157.66365952 222.15655313 -157.66317835 222.87010929 -157.66268259 223.60528835 C-157.66031427 227.22905763 -157.65820458 230.852827 -157.65619446 234.47659649 C-157.6414903 260.1459352 -157.59432535 285.81512191 -157.52807617 311.484375 C-157.46378901 336.4221923 -157.41420187 361.35996801 -157.38452148 386.29785156 C-157.3836008 387.0665012 -157.38268012 387.83515084 -157.38173154 388.62709289 C-157.37250192 396.34616582 -157.36357122 404.06523908 -157.35485952 411.78431261 C-157.33710587 427.50905284 -157.31735711 443.23379034 -157.29640198 458.95852661 C-157.29544095 459.68152967 -157.29447992 460.40453272 -157.29348977 461.14944496 C-157.22908158 509.43302793 -157.11801921 557.71652146 -157 606 C-154.36 606 -151.72 606 -149 606 C-149 434.07 -149 262.14 -149 85 C-151.45044421 85 -153.68571938 87.60635884 -155.41928811 89.12582316 Z M-186 92 C-186 261.62 -186 431.24 -186 606 C-183.36 606 -180.72 606 -178 606 C-178 436.71 -178 267.42 -178 93 C-180.64 92.67 -183.28 92.34 -186 92 Z M-421.9375 107.25 C-423.74541016 107.87648438 -423.74541016 107.87648438 -425.58984375 108.515625 C-429.49447125 110.03869644 -429.49447125 110.03869644 -434 114 C-429.05 114 -424.1 114 -419 114 C-419 276.36 -419 438.72 -419 606 C-416.36 606 -413.72 606 -411 606 C-411 440.67 -411 275.34 -411 105 C-415.24831341 105 -417.95299264 105.83820017 -421.9375 107.25 Z M-280 43 C-281.63302535 45.28446687 -283.14464394 47.55736503 -284.625 49.9375 C-285.04523438 50.59685547 -285.46546875 51.25621094 -285.8984375 51.93554688 C-288.04265339 54.76717007 -288.04265339 54.76717007 -289 58 C-285.7 58 -282.4 58 -279 58 C-279 93.31 -279 128.62 -279 165 C-285.93 165 -292.86 165 -300 165 C-300 135.63 -300 106.26 -300 76 C-303.70849742 79.70849742 -306.72109539 83.08711353 -309.8125 87.25 C-310.99779297 88.83554688 -310.99779297 88.83554688 -312.20703125 90.453125 C-314.09594145 92.61716744 -314.09594145 92.61716744 -314 94 C-312.02 94 -310.04 94 -308 94 C-308 116.11 -308 138.22 -308 161 C-314.93 161 -321.86 161 -329 161 C-329 143.84 -329 126.68 -329 109 C-332.22202964 110.28881186 -335.30875192 111.59572505 -338.4375 113.0625 C-347.13701289 116.92416496 -355.5331788 116.65489385 -364.625 114.3125 C-365.64726685 114.05001465 -365.64726685 114.05001465 -366.69018555 113.78222656 C-372.66757471 112.19747515 -378.43370503 110.15881465 -384.20703125 107.953125 C-386.98135085 106.83851481 -386.98135085 106.83851481 -390 107 C-390 271.67 -390 436.34 -390 606 C-387.69 606 -385.38 606 -383 606 C-383 480.93 -383 355.86 -383 227 C-376.07 227 -369.14 227 -362 227 C-362 352.07 -362 477.14 -362 606 C-359.69 606 -357.38 606 -355 606 C-355 487.2 -355 368.4 -355 246 C-348.07 246 -341.14 246 -334 246 C-334 364.8 -334 483.6 -334 606 C-330.7 606 -327.4 606 -324 606 C-324 488.85 -324 371.7 -324 251 C-317.07 251 -310.14 251 -303 251 C-303 368.15 -303 485.3 -303 606 C-300.36 606 -297.72 606 -295 606 C-295 489.18 -295 372.36 -295 252 C-288.07 252 -281.14 252 -274 252 C-274 368.82 -274 485.64 -274 606 C-271.03 606 -268.06 606 -265 606 C-265 484.56 -265 363.12 -265 238 C-258.07 238 -251.14 238 -244 238 C-244 359.44 -244 480.88 -244 606 C-241.36 606 -238.72 606 -236 606 C-236 474 -236 342 -236 206 C-229.07 206 -222.14 206 -215 206 C-215 338 -215 470 -215 606 C-212.36 606 -209.72 606 -207 606 C-207 434.4 -207 262.8 -207 86 C-206.34 85.67 -205.68 85.34 -205 85 C-208.3 84.34 -211.6 83.68 -215 83 C-215 110.06 -215 137.12 -215 165 C-221.93 165 -228.86 165 -236 165 C-236 136.29 -236 107.58 -236 78 C-235.34 77.67 -234.68 77.34 -234 77 C-238.62 75.35 -243.24 73.7 -248 72 C-248 100.71 -248 129.42 -248 159 C-254.93 159 -261.86 159 -269 159 C-269 128.64 -269 98.28 -269 67 C-265.7 67 -262.4 67 -259 67 C-261.55126446 64.37369835 -263.92141986 62.05808098 -266.875 59.875 C-271.97658232 55.74073069 -275.94040409 49.17878773 -278 43 C-278.66 43 -279.32 43 -280 43 Z M-446.24609375 120.51953125 C-447.50196289 121.31133789 -447.50196289 121.31133789 -448.78320312 122.11914062 C-449.65912109 122.67794922 -450.53503906 123.23675781 -451.4375 123.8125 C-452.30955078 124.35970703 -453.18160156 124.90691406 -454.08007812 125.47070312 C-457.77502781 127.81377268 -460.88665619 129.88665619 -464 133 C-459.05 133 -454.1 133 -449 133 C-449 289.09 -449 445.18 -449 606 C-446.03 606 -443.06 606 -440 606 C-440 444.96 -440 283.92 -440 118 C-442.71194245 118 -443.95634223 119.07462655 -446.24609375 120.51953125 Z M-476.5625 139 C-477.57441406 139.556875 -478.58632813 140.11375 -479.62890625 140.6875 C-480.41136719 141.120625 -481.19382812 141.55375 -482 142 C-481.01 142.495 -481.01 142.495 -480 143 C-480 295.79 -480 448.58 -480 606 C-476.7 606 -473.4 606 -470 606 C-470 450.9 -470 295.8 -470 136 C-472.22684337 136 -474.69221738 137.96811993 -476.5625 139 Z M-509.125 156 C-510.22070312 156.556875 -511.31640625 157.11375 -512.4453125 157.6875 C-513.28835938 158.120625 -514.13140625 158.55375 -515 159 C-515 159.33 -515 159.66 -515 160 C-513.35 160 -511.7 160 -510 160 C-510 307.18 -510 454.36 -510 606 C-507.03 606 -504.06 606 -501 606 C-501 456.51 -501 307.02 -501 153 C-504.12114363 153 -506.3698871 154.59313384 -509.125 156 Z M-541 171 C-540.67 314.55 -540.34 458.1 -540 606 C-537.03 606 -534.06 606 -531 606 C-531 461.13 -531 316.26 -531 167 C-534.59010987 167 -537.71931614 169.54191828 -541 171 Z M-568.8125 185.75 C-569.44220703 186.09804687 -570.07191406 186.44609375 -570.72070312 186.8046875 C-574.32162226 188.84508239 -577.20884352 190.87840434 -580 194 C-576.37 194 -572.74 194 -569 194 C-569 329.96 -569 465.92 -569 606 C-566.36 606 -563.72 606 -561 606 C-561 466.08 -561 326.16 -561 182 C-563.58067924 182 -566.55197055 184.46865466 -568.8125 185.75 Z M-608.5390625 216.2734375 C-610.22123859 218.0447313 -610.22123859 218.0447313 -611 221 C-606.71 221 -602.42 221 -598 221 C-598 348.05 -598 475.1 -598 606 C-595.36 606 -592.72 606 -590 606 C-590 472.35 -590 338.7 -590 201 C-595.5334822 201 -604.64257186 212.40875494 -608.5390625 216.2734375 Z M-620 231 C-624.66818642 236.81025038 -628.45995351 243.28679545 -632.25 249.6875 C-632.674021 250.39962646 -633.09804199 251.11175293 -633.53491211 251.84545898 C-636.03937499 256.1265454 -638.14316643 260.40011684 -640 265 C-636.37 265 -632.74 265 -629 265 C-629 377.53 -629 490.06 -629 606 C-625.7 606 -622.4 606 -619 606 C-619 482.25 -619 358.5 -619 231 C-619.33 231 -619.66 231 -620 231 Z M-651 287 C-656.64062304 300.63081867 -662.19091767 314.29178687 -667.45199585 328.07388306 C-667.94155129 329.35591666 -668.43277807 330.63731332 -668.9256897 331.9180603 C-669.6159387 333.7141704 -670.2983824 335.51327423 -670.98046875 337.3125 C-671.37129639 338.33988281 -671.76212402 339.36726563 -672.16479492 340.42578125 C-673.1543064 343.02454049 -673.1543064 343.02454049 -673 346 C-668.71 346 -664.42 346 -660 346 C-660 431.8 -660 517.6 -660 606 C-656.7 606 -653.4 606 -650 606 C-650 500.73 -650 395.46 -650 287 C-650.33 287 -650.66 287 -651 287 Z M-682 370 C-695.45761517 426.17362892 -695.26452748 480.99713035 -693.73588121 538.37257826 C-693.53923388 545.76846545 -693.35430792 553.16463401 -693.17005074 560.56083858 C-692.79246294 575.70755658 -692.40073404 590.85387531 -692 606 C-688.37 606 -684.74 606 -681 606 C-681 528.12 -681 450.24 -681 370 C-681.33 370 -681.66 370 -682 370 Z " fill="#6A9FFE" transform="translate(759,50)"/>
<path d="M0 0 C0 181.5 0 363 0 550 C-6.93 550 -13.86 550 -21 550 C-21 369.49 -21 188.98 -21 3 C-14 0 -14 0 0 0 Z " fill="#83C0FF" transform="translate(885,107)"/>
<path d="M0 0 C6.6 0 13.2 0 20 0 C21.86168304 1.86168304 21.12391486 4.52610457 21.13100848 7.00363037 C21.12838146 7.87697597 21.12575445 8.75032156 21.12304783 9.65013218 C21.12420167 10.57313806 21.12535552 11.49614393 21.12654433 12.44711968 C21.12921901 15.58093931 21.12468188 18.71470891 21.12025452 21.848526 C21.12069005 24.10153018 21.12156461 26.35453431 21.12284368 28.60753816 C21.12509226 34.83054452 21.12106243 41.05353384 21.11606562 47.27653801 C21.11220734 53.28835177 21.1130248 59.30016362 21.11374746 65.31197812 C21.1150635 77.6155557 21.11171187 89.91912792 21.10573006 102.22270393 C21.09981966 114.41055388 21.09596545 126.5984016 21.09487724 138.78625298 C21.0948085 139.54312958 21.09473976 140.30000618 21.09466894 141.07981844 C21.09433062 144.923374 21.09402923 148.76692956 21.09374207 152.61048513 C21.09163982 179.85759382 21.08489736 207.10469959 21.07543945 234.35180664 C21.06625993 260.82739242 21.05917392 287.3029774 21.05493164 313.77856445 C21.05480011 314.59418745 21.05466859 315.40981046 21.05453308 316.25014931 C21.05321459 324.44072604 21.05193877 332.63130278 21.05069422 340.82187952 C21.04815778 357.50807903 21.04533653 374.19427848 21.04234314 390.88047791 C21.04220585 391.64773757 21.04206856 392.41499723 21.04192711 393.20550718 C21.03272136 444.47033937 21.01679889 495.73516981 21 547 C14.07 547 7.14 547 0 547 C0 366.49 0 185.98 0 0 Z " fill="#83C0FF" transform="translate(808,108)"/>
<path d="M0 0 C6.93 0 13.86 0 21 0 C21 179.52 21 359.04 21 544 C14.07 544 7.14 544 0 544 C0 364.48 0 184.96 0 0 Z " fill="#83C0FF" transform="translate(836,110)"/>
<path d="M0 0 C6.93 0 13.86 0 21 0 C21 178.86 21 357.72 21 542 C14.07 542 7.14 542 0 542 C0 363.14 0 184.28 0 0 Z " fill="#84C1FF" transform="translate(639,113)"/>
<path d="M0 0 C5.94 0 11.88 0 18 0 C18 175.23 18 350.46 18 531 C11.07 531 4.14 531 -3 531 C-3.05117678 481.14226438 -3.09911034 431.28452763 -3.12702942 381.42677307 C-3.12744359 380.689037 -3.12785776 379.95130093 -3.12828448 379.19120921 C-3.1372629 363.15878903 -3.14557349 347.12636856 -3.15319599 331.09394768 C-3.15693805 323.23182117 -3.1608277 315.36969475 -3.16479492 307.50756836 C-3.1651872 306.7251861 -3.16557948 305.94280384 -3.16598364 305.13671303 C-3.17877106 279.77068263 -3.20130751 254.40467225 -3.22889166 229.03865398 C-3.25718302 202.9750001 -3.27565484 176.9113573 -3.28174497 150.84768833 C-3.28260945 147.16762962 -3.28358636 143.48757095 -3.28463173 139.80751228 C-3.284834 139.08321339 -3.28503627 138.3589145 -3.28524467 137.61266716 C-3.28879186 125.94648741 -3.30271155 114.28034191 -3.3204961 102.61417614 C-3.33814831 90.88995421 -3.3446632 79.16577467 -3.34050413 67.44153904 C-3.33857756 61.08737128 -3.34158643 54.73330419 -3.35761642 48.37915421 C-3.37217663 42.56532228 -3.37297755 36.75165905 -3.36269668 30.93781949 C-3.36142536 28.83137979 -3.36526362 26.72492971 -3.37464955 24.61851054 C-3.38664729 21.76041172 -3.38022496 18.90292596 -3.36914349 16.044837 C-3.37702453 15.22254908 -3.38490557 14.40026117 -3.39302543 13.55305544 C-3.38628355 12.78621377 -3.37954167 12.0193721 -3.37259549 11.22929281 C-3.37306343 10.5765139 -3.37353137 9.92373498 -3.37401349 9.25117489 C-3 7 -3 7 0 0 Z " fill="#83C0FF" transform="translate(613,125)"/>
<path d="M0 0 C7 0 7 0 21 5 C21 174.95 21 344.9 21 520 C14.07 520 7.14 520 0 520 C0 348.4 0 176.8 0 0 Z " fill="#83C0FF" transform="translate(552,136)"/>
<path d="M0 0 C0 170.28 0 340.56 0 516 C-6.93 516 -13.86 516 -21 516 C-21 346.38 -21 176.76 -21 2 C-15.72 2 -10.44 2 -5 2 C-2 0 -2 0 0 0 Z " fill="#83C0FF" transform="translate(602,141)"/>
<path d="M0 0 C14 0 14 0 21 2 C21 167 21 332 21 502 C14.07 502 7.14 502 0 502 C0 336.34 0 170.68 0 0 Z " fill="#83C0FF" transform="translate(348,154)"/>
<path d="M0 0 C5.94 0 11.88 0 18 0 C18 162.36 18 324.72 18 492 C11.07 492 4.14 492 -3 492 C-3.05116536 445.42259947 -3.09910015 398.84519728 -3.12702942 352.26777649 C-3.12744359 351.578829 -3.12785776 350.88988152 -3.12828448 350.18005683 C-3.13726242 335.20872684 -3.14557308 320.23739656 -3.15319599 305.26606582 C-3.15693812 297.92452884 -3.16082777 290.58299194 -3.16479492 283.24145508 C-3.1651872 282.51086928 -3.16557948 281.78028348 -3.16598364 281.02755872 C-3.17877626 257.33113178 -3.20131658 233.63472625 -3.22889166 209.93831229 C-3.25716842 185.59480692 -3.27565144 161.2513134 -3.28174497 136.90779188 C-3.28260948 133.47240558 -3.28358639 130.03701932 -3.28463173 126.60163307 C-3.284834 125.92547476 -3.28503627 125.24931644 -3.28524467 124.55266848 C-3.28879501 113.65188016 -3.30272313 102.75112841 -3.3204961 91.85035503 C-3.33812748 80.90138991 -3.34466805 69.9524558 -3.34050413 59.00347622 C-3.33857464 53.06700624 -3.34161919 47.13064393 -3.35761642 41.19419289 C-3.37213612 35.76668796 -3.37300434 30.33936388 -3.36269668 24.91185091 C-3.36142135 22.94141663 -3.36529383 20.97097141 -3.37464955 19.00055894 C-3.38657455 16.33549296 -3.38027054 13.67109203 -3.36914349 11.00603771 C-3.37702453 10.22939383 -3.38490557 9.45274995 -3.39302543 8.65257141 C-3.35072208 4.21206525 -3.29588834 3.29588834 0 0 Z " fill="#83C0FF" transform="translate(322,164)"/>
<path d="M0 0 C6.27 0 12.54 0 19 0 C19 156.09 19 312.18 19 473 C12.07 473 5.14 473 -2 473 C-2.03410825 428.12454576 -2.066065 383.2490904 -2.08468628 338.37362671 C-2.08496239 337.70991644 -2.08523851 337.04620617 -2.08552299 336.36238347 C-2.0915082 321.93968293 -2.09704865 307.51698224 -2.10213066 293.09428135 C-2.10462543 286.02183858 -2.10721852 278.94939584 -2.10986328 271.87695312 C-2.1101248 271.17314373 -2.11038632 270.46933434 -2.11065576 269.7441974 C-2.11918508 246.91381943 -2.13421263 224.08345133 -2.15259444 201.25307934 C-2.17197684 177.1362863 -2.18398786 153.01949946 -2.18817699 128.90269887 C-2.19092752 114.447747 -2.1996291 99.99282345 -2.21583293 85.53788029 C-2.22636738 75.63892737 -2.2296087 65.73998921 -2.22700275 55.84103109 C-2.22571592 50.12141126 -2.22775183 44.4018411 -2.23841095 38.68223 C-2.24808365 33.45403728 -2.2486742 28.22592802 -2.24179779 22.99773161 C-2.24094687 21.09864904 -2.24353441 19.19956144 -2.24976636 17.3004889 C-2.2577034 14.73418054 -2.25352135 12.16818006 -2.24609566 9.60187721 C-2.25134968 8.85148454 -2.25660371 8.10109186 -2.26201695 7.32796001 C-2.2282916 2.2282916 -2.2282916 2.2282916 0 0 Z " fill="#83C0FF" transform="translate(291,183)"/>
<path d="M0 0 C0 153.12 0 306.24 0 464 C-6.93 464 -13.86 464 -21 464 C-21.18237555 406.12086416 -21.32402873 348.24175974 -21.40852264 290.36239367 C-21.41850152 283.53415712 -21.42887393 276.70592119 -21.43945312 269.87768555 C-21.4404992 269.19818592 -21.44154527 268.51868629 -21.44262304 267.81859576 C-21.47672751 245.78513363 -21.53682801 223.75183538 -21.61037777 201.71847258 C-21.68794578 178.43913421 -21.73595982 155.15991511 -21.75270796 131.88043708 C-21.76370243 117.9304719 -21.79846632 103.98097716 -21.86333174 90.03115674 C-21.90551587 80.47413582 -21.91842436 70.91735922 -21.90801102 61.36025188 C-21.90287066 55.84045816 -21.91092464 50.32148824 -21.9536438 44.80183983 C-21.99243849 39.752568 -21.99463262 34.70467754 -21.96719116 29.6553435 C-21.9637974 27.82482173 -21.97406453 25.99421543 -21.99906546 24.16386125 C-22.17569956 10.43869706 -22.17569956 10.43869706 -19.23746395 6.84319437 C-17.16510188 5.51791703 -15.34150629 4.72002874 -13 4 C-12.22269531 3.55011719 -11.44539063 3.10023438 -10.64453125 2.63671875 C-10.03996094 2.32347656 -9.43539063 2.01023438 -8.8125 1.6875 C-8.20019531 1.36136719 -7.58789062 1.03523437 -6.95703125 0.69921875 C-5 0 -5 0 0 0 Z " fill="#83C0FF" transform="translate(279,193)"/>
<path d="M0 0 C0 147.18 0 294.36 0 446 C-6.93 446 -13.86 446 -21 446 C-21 300.8 -21 155.6 -21 6 C-9 0 -9 0 0 0 Z " fill="#83C0FF" transform="translate(249,210)"/>
<path d="M0 0 C0 143.55 0 287.1 0 435 C-6.93 435 -13.86 435 -21 435 C-21.18238172 380.81529576 -21.32401573 326.63063038 -21.40852264 272.4456795 C-21.41852865 266.05305992 -21.4288832 259.66044094 -21.43945312 253.26782227 C-21.44155161 251.99513192 -21.44365009 250.72244158 -21.44581217 249.41118487 C-21.48065146 228.78624882 -21.54374385 208.16149061 -21.61722237 187.53666017 C-21.69195473 166.383945 -21.73645333 145.23132316 -21.75270796 124.07848138 C-21.76370158 111.01907668 -21.79846074 97.96017457 -21.86333174 84.90092453 C-21.90552103 75.95361875 -21.91842321 67.00657393 -21.90801102 58.05917583 C-21.90287143 52.89175641 -21.91091539 47.72521701 -21.9536438 42.55795288 C-21.99245018 37.83062478 -21.99462562 33.10477196 -21.96719116 28.37737729 C-21.9637985 26.66394572 -21.97405645 24.95042374 -21.99906546 23.23717133 C-22.17569736 10.39399421 -22.17569736 10.39399421 -19.23746395 6.9102062 C-17.17439669 5.59259759 -15.31808989 4.7589293 -13 4 C-12.22269531 3.55011719 -11.44539062 3.10023438 -10.64453125 2.63671875 C-10.03996094 2.32347656 -9.43539062 2.01023438 -8.8125 1.6875 C-8.20019531 1.36136719 -7.58789062 1.03523437 -6.95703125 0.69921875 C-5 0 -5 0 0 0 Z " fill="#83C0FF" transform="translate(219,222)"/>
<path d="M0 0 C0 136.29 0 272.58 0 413 C-6.93 413 -13.86 413 -21 413 C-21.15958779 361.10837549 -21.28351575 309.21678206 -21.35745731 257.32496037 C-21.36621256 251.20272383 -21.37527279 245.08048777 -21.38452148 238.95825195 C-21.38635766 237.73939268 -21.38819383 236.5205334 -21.39008565 235.264739 C-21.4205691 215.51280296 -21.47577446 195.76100912 -21.54006957 176.00915752 C-21.60546291 155.75140994 -21.64439721 135.49373698 -21.65861946 115.23588818 C-21.66823833 102.72929777 -21.69864984 90.22310921 -21.75541527 77.71664246 C-21.79233397 69.14779406 -21.80361957 60.57915428 -21.79450964 52.01023207 C-21.79001304 47.06161061 -21.7970457 42.11369274 -21.83443832 37.16519547 C-21.86840014 32.63780724 -21.8702925 28.11159839 -21.84629226 23.58415689 C-21.84332436 21.9434091 -21.85229401 20.30258895 -21.87418228 18.66198448 C-22.02192019 6.90832524 -22.02192019 6.90832524 -19.87751019 2.90387189 C-14.45906587 -2.00729412 -6.7365604 0 0 0 Z " fill="#83C0FF" transform="translate(190,244)"/>
<path d="M0 0 C6.93 0 13.86 0 21 0 C21 132 21 264 21 400 C14.07 400 7.14 400 0 400 C0 268 0 136 0 0 Z " fill="#84C1FF" transform="translate(523,256)"/>
<path d="M0 0 C0 127.38 0 254.76 0 386 C-6.93 386 -13.86 386 -21 386 C-21.13682821 337.83683579 -21.24303353 289.67369721 -21.30639198 241.51037687 C-21.31389636 235.82633491 -21.32166228 230.14229334 -21.32958984 224.45825195 C-21.33116371 223.32664513 -21.33273757 222.1950383 -21.33435912 221.02914036 C-21.36047843 202.69797368 -21.40779221 184.36691972 -21.46291678 166.03581994 C-21.51899418 147.23125682 -21.55234599 128.42675279 -21.56453097 109.62210947 C-21.57277029 98.01534851 -21.59880817 86.4089061 -21.6474988 74.80224318 C-21.67917538 66.84684619 -21.68880945 58.89161427 -21.68100826 50.93615877 C-21.67715909 46.34379368 -21.68312552 41.75198587 -21.71523285 37.15971947 C-21.7444127 32.95551257 -21.74591879 28.75223813 -21.72539337 24.54798848 C-21.72285634 23.02699387 -21.73048511 21.50594129 -21.74929909 19.98506092 C-21.89756125 7.26013186 -21.89756125 7.26013186 -18.89240456 2.54811954 C-15 0 -15 0 0 0 Z " fill="#83C0FF" transform="translate(161,271)"/>
<path d="M0 0 C3.63 0 7.26 0 11 0 C12.5135446 10.31663863 13.57141642 20.58572191 14.09912109 31.0012207 C14.14088179 31.81585742 14.18264249 32.63049413 14.22566867 33.4698168 C15.72436929 64.10105945 15.35711577 94.82853844 15.4006208 125.48809944 C15.41462957 135.10845111 15.4396591 144.72876666 15.46498732 154.34909407 C15.5102352 171.65060427 15.5468829 188.95212138 15.578125 206.25366211 C15.60790777 222.7383767 15.64221918 239.22307155 15.68261719 255.70776367 C15.68507825 256.71336884 15.68753931 257.71897402 15.69007495 258.75505207 C15.70000376 262.80702634 15.70995678 266.85900055 15.71994175 270.91097467 C15.93578253 358.60733354 16.06697979 446.30336559 16 534 C10.72 534 5.44 534 0 534 C0 357.78 0 181.56 0 0 Z " fill="#83C0FF" transform="translate(918,117)"/>
<path d="M0 0 C6.93 0 13.86 0 21 0 C21 125.07 21 250.14 21 379 C14.07 379 7.14 379 0 379 C0 253.93 0 128.86 0 0 Z " fill="#84C1FF" transform="translate(376,277)"/>
<path d="M0 0 C6.93 0 13.86 0 21 0 C21 121.44 21 242.88 21 368 C14.07 368 7.14 368 0 368 C0 246.56 0 125.12 0 0 Z " fill="#84C1FF" transform="translate(494,288)"/>
<path d="M0 0 C6.93 0 13.86 0 21 0 C21 119.13 21 238.26 21 361 C14.07 361 7.14 361 0 361 C0 241.87 0 122.74 0 0 Z " fill="#83C0FF" transform="translate(404,296)"/>
<path d="M0 0 C6.93 0 13.86 0 21 0 C21 117.15 21 234.3 21 355 C14.07 355 7.14 355 0 355 C0 237.85 0 120.7 0 0 Z " fill="#83C0FF" transform="translate(464,302)"/>
<path d="M0 0 C6.93 0 13.86 0 21 0 C21 117.15 21 234.3 21 355 C14.07 355 7.14 355 0 355 C0 237.85 0 120.7 0 0 Z " fill="#84C1FF" transform="translate(435,301)"/>
<path d="M0 0 C3.96 0 7.92 0 12 0 C12 112.86 12 225.72 12 342 C5.07 342 -1.86 342 -9 342 C-9.11412078 301.05600435 -9.20257818 260.11203374 -9.25532665 219.16791065 C-9.26158 214.33150397 -9.26805163 209.49509761 -9.2746582 204.65869141 C-9.27596976 203.69587056 -9.27728131 202.73304971 -9.2786326 201.74105248 C-9.3003752 186.16154815 -9.33979042 170.58213629 -9.38576398 155.00268677 C-9.4325605 139.0106991 -9.46030216 123.01875978 -9.47044247 107.02670646 C-9.477295 97.16274708 -9.4989196 87.2990491 -9.53958233 77.4351702 C-9.56606016 70.6664759 -9.5739896 63.89791627 -9.56750689 57.12917396 C-9.56431181 53.2268447 -9.56912779 49.32497146 -9.59602737 45.42272377 C-9.62052134 41.84313711 -9.62148479 38.26430918 -9.60449447 34.68468615 C-9.60141147 32.79070811 -9.62283177 30.89673779 -9.64540654 29.00289178 C-9.54980298 17.96837403 -5.69834594 9.28619339 0 0 Z " fill="#83C0FF" transform="translate(118,315)"/>
<path d="M0 0 C6.93 0 13.86 0 21 0 C21 104.61 21 209.22 21 317 C14.07 317 7.14 317 0 317 C0 212.39 0 107.78 0 0 Z " fill="#83C0FF" transform="translate(781,340)"/>
<path d="M0 0 C6.93 0 13.86 0 21 0 C21 3.3 21 6.6 21 10 C20.34 10 19.68 10 19 10 C19 106.69 19 203.38 19 303 C12.07 303 5.14 303 -2 303 C-2 206.31 -2 109.62 -2 10 C-1.34 10 -0.68 10 0 10 C0 6.7 0 3.4 0 0 Z " fill="#84C1FF" transform="translate(757,353)"/>
<path d="M0 0 C6.93 0 13.86 0 21 0 C20.67 99.33 20.34 198.66 20 301 C13.07 301 6.14 301 -1 301 C-1.02281757 263.95412313 -1.04051225 226.90824752 -1.05106533 189.86236504 C-1.05231602 185.48775181 -1.05361034 181.1131386 -1.05493164 176.73852539 C-1.05519395 175.86762667 -1.05545626 174.99672795 -1.05572652 174.09943836 C-1.06007662 160.00202208 -1.06796055 145.90460989 -1.0771528 131.80719603 C-1.08650766 117.33960406 -1.0920595 102.87201423 -1.09408849 88.40441936 C-1.09545991 79.47873437 -1.09978988 70.55306091 -1.10791647 61.62737947 C-1.11320653 55.50489615 -1.11479914 49.38241879 -1.11350138 43.25993336 C-1.11286154 39.72877085 -1.11383546 36.19762849 -1.11920547 32.66646957 C-1.12499165 28.83355227 -1.12298344 25.00066106 -1.12025452 21.16773987 C-1.12462378 19.50282787 -1.12462378 19.50282787 -1.12908131 17.80428129 C-1.12709026 16.76921035 -1.12509921 15.73413941 -1.12304783 14.66770267 C-1.12342755 13.78409347 -1.12380727 12.90048426 -1.1241985 11.99009901 C-0.9576048 7.97932858 -0.44329741 3.98967672 0 0 Z " fill="#83C0FF" transform="translate(727,356)"/>
<path d="M0 0 C4.62 0 9.24 0 14 0 C14 86.13 14 172.26 14 261 C7.07 261 0.14 261 -7 261 C-7.09058643 230.44299809 -7.16212509 199.88603961 -7.20426132 169.32893586 C-7.20926363 165.71440754 -7.21444097 162.09987948 -7.21972656 158.48535156 C-7.2207758 157.76581975 -7.22182505 157.04628795 -7.22290608 156.30495214 C-7.24027091 144.68243775 -7.27178675 133.06000318 -7.30861118 121.437536 C-7.34613019 109.49549267 -7.36825891 97.55349091 -7.37635398 85.61139107 C-7.38133102 78.91054277 -7.39371915 72.20988608 -7.42292023 65.50909424 C-7.45022296 59.19228682 -7.45841502 52.87573304 -7.45243073 46.55887222 C-7.45352433 44.24994653 -7.46138893 41.94101168 -7.4768219 39.6321373 C-7.556383 27.1068952 -7.62767493 14.8427876 -3 3 C-2.01 2.01 -1.02 1.02 0 0 Z " fill="#83C0FF" transform="translate(85,396)"/>
<path d="M0 0 C3.63 0 7.26 0 11 0 C11 35.31 11 70.62 11 107 C4.07 107 -2.86 107 -10 107 C-10.20413793 95.24654052 -10.36890442 83.49427718 -10.46630955 71.73943901 C-10.51308298 66.27988172 -10.57642136 60.82161034 -10.67895508 55.36279297 C-10.77746172 50.08474405 -10.8307065 44.80792394 -10.85389519 39.52902603 C-10.87039818 37.52523602 -10.90262355 35.52150577 -10.95157051 33.5182457 C-11.2658707 20.10938968 -9.80004606 11.3956106 -1 1 C-0.67 0.67 -0.34 0.34 0 0 Z " fill="#83C0FF" transform="translate(469,108)"/>
<path d="M0 0 C4.69582931 3.32144025 7.69650766 6.87341233 10.5625 11.8125 C11.0471875 11.20921875 11.531875 10.6059375 12.03125 9.984375 C17.26374829 3.74562704 21.39224258 -0.63583482 29.7109375 -1.5234375 C37.68402245 -1.76062309 42.9170621 -1.06993927 49.25 3.9375 C56.46819696 12.91147459 56.71791625 22.70064974 56.6953125 33.7421875 C56.69626923 34.77312531 56.69722595 35.80406311 56.69821167 36.86624146 C56.69888937 39.03289857 56.69706378 41.19955777 56.69287109 43.36621094 C56.68748413 46.69731123 56.69284673 50.02827869 56.69921875 53.359375 C56.69855854 55.46614613 56.69727856 57.57291718 56.6953125 59.6796875 C56.69733673 60.68063446 56.69936096 61.68158142 56.70144653 62.71286011 C56.69671829 64.09031906 56.69671829 64.09031906 56.69189453 65.49560547 C56.69109894 66.30722137 56.69030334 67.11883728 56.68948364 67.95504761 C56.5625 69.8125 56.5625 69.8125 55.5625 70.8125 C52.5625 70.9375 52.5625 70.9375 49.5625 70.8125 C47.95534068 69.20534068 48.42160595 67.47605325 48.40478516 65.25195312 C48.39452301 64.28004028 48.38426086 63.30812744 48.37368774 62.3067627 C48.36638641 61.24646851 48.35908508 60.18617432 48.3515625 59.09375 C48.3234723 56.85936795 48.29480772 54.62499305 48.265625 52.390625 C48.22450326 48.86002974 48.18762806 45.32956506 48.16113281 41.79882812 C48.13337329 38.39685126 48.08747545 34.99548754 48.0390625 31.59375 C48.03580963 30.54964966 48.03255676 29.50554932 48.02920532 28.42980957 C47.90599396 21.01375875 47.4447805 13.76683751 42.0625 8.25 C36.11204807 5.80606439 30.39709974 6.01025479 24.25 7.75 C17.02295481 13.296337 14.90481243 20.13353552 13.5625 28.8125 C13.27590753 32.20150538 13.19373131 35.57660466 13.1484375 38.9765625 C13.12907135 39.89464691 13.1097052 40.81273132 13.0897522 41.75863647 C13.03062855 44.65150056 12.98384357 47.54440591 12.9375 50.4375 C12.89925817 52.41538062 12.86020297 54.39324569 12.8203125 56.37109375 C12.72498356 61.18476748 12.64070891 65.99851893 12.5625 70.8125 C10.2525 70.8125 7.9425 70.8125 5.5625 70.8125 C5.55663376 70.2060817 5.55076752 69.59966339 5.54472351 68.97486877 C5.48051055 62.63114022 5.39602039 56.28790594 5.30004883 49.94458008 C5.2669098 47.58103984 5.23884398 45.21742255 5.21606445 42.85375977 C5.18231577 39.44514306 5.12998871 36.03722537 5.07421875 32.62890625 C5.06782883 31.58166885 5.0614389 30.53443146 5.05485535 29.45545959 C4.90875767 22.07197068 4.51405428 14.69206515 -1 9.3125 C-6.09913356 6.17457165 -10.52263246 6.25619157 -16.4375 6.8125 C-21.4232355 8.18149602 -23.76552205 10.92041018 -26.3125 15.3125 C-28.6163722 19.76767009 -29.54859337 23.57346214 -29.64282227 28.58105469 C-29.66276749 29.52172791 -29.68271271 30.46240112 -29.70326233 31.43157959 C-29.71997482 32.43900208 -29.73668732 33.44642456 -29.75390625 34.484375 C-29.77468735 35.52192932 -29.79546844 36.55948364 -29.81687927 37.628479 C-29.88221408 40.93975258 -29.94118517 44.25110482 -30 47.5625 C-30.04320049 49.80860185 -30.08681527 52.05469578 -30.13085938 54.30078125 C-30.23787903 59.80460457 -30.33967522 65.30850598 -30.4375 70.8125 C-32.7475 70.8125 -35.0575 70.8125 -37.4375 70.8125 C-37.4375 47.3825 -37.4375 23.9525 -37.4375 -0.1875 C-35.1275 -0.1875 -32.8175 -0.1875 -30.4375 -0.1875 C-30.1075 2.7825 -29.7775 5.7525 -29.4375 8.8125 C-28.715625 7.884375 -27.99375 6.95625 -27.25 6 C-20.55160899 -2.02293161 -9.63765447 -3.32937154 0 0 Z " fill="#3758C4" transform="translate(209.4375,787.1875)"/>
<path d="M0 0 C13 0 13 0 21 4 C21 33.04 21 62.08 21 92 C14.07 92 7.14 92 0 92 C0 61.64 0 31.28 0 0 Z " fill="#83C0FF" transform="translate(490,117)"/>
<path d="M0 0 C2.31 0 4.62 0 7 0 C8.52791083 1.52791083 8.16183457 2.92989408 8.20532227 5.06079102 C8.22526749 5.92160782 8.24521271 6.78242462 8.26576233 7.66932678 C8.28247482 8.60473801 8.29918732 9.54014923 8.31640625 10.50390625 C8.33718735 11.45692123 8.35796844 12.40993622 8.37937927 13.39183044 C8.44498177 16.4486441 8.50380918 19.50554656 8.5625 22.5625 C8.60567506 24.62956663 8.64928901 26.69662414 8.69335938 28.76367188 C8.80067401 33.84235595 8.90191091 38.9211297 9 44 C9.40724808 43.51236176 9.81449615 43.02472351 10.23408508 42.52230835 C10.77083359 41.88636749 11.30758209 41.25042664 11.8605957 40.59521484 C12.39159378 39.9632016 12.92259186 39.33118835 13.46968079 38.68002319 C15.21075874 36.76862372 16.81909221 35.65556467 19.1875 34.625 C19.84105469 34.32851563 20.49460937 34.03203125 21.16796875 33.7265625 C28.5608397 30.794635 37.69601272 30.58228624 45.0625 33.75 C46.39585154 34.46227097 47.71209762 35.20850539 49 36 C49.9075 36.556875 50.815 37.11375 51.75 37.6875 C60.10425407 46.27381669 61.88925975 57.45840531 62 69 C61.06198236 81.29845351 57.36813558 91.68408255 48 100 C39.99799772 105.2476899 31.06508018 106.29864037 21.68359375 104.57421875 C16.19756031 102.82427071 12.73585762 99.2612126 9 95 C8.67 97.64 8.34 100.28 8 103 C5.36 103 2.72 103 0 103 C0 69.01 0 35.02 0 0 Z M12.32421875 47.828125 C7.99537617 54.92793761 7.50446603 61.36469303 7.5625 69.5 C7.54251953 70.49386719 7.52253906 71.48773437 7.50195312 72.51171875 C7.50717944 80.42436175 9.25062946 85.63965823 14.25 91.75 C20.30352522 96.70288427 25.40793351 98.71158171 33.3203125 98.3828125 C39.40520829 97.51354167 44.170505 94.808517 47.90625 89.8359375 C54.02541832 79.5644764 55.47704323 67.85484151 53.25 56.1875 C51.63025994 49.83313514 47.87501533 45.28050126 43 41 C31.78447678 35.46958683 20.13807771 38.7828556 12.32421875 47.828125 Z " fill="#3758C3" transform="translate(579,754)"/>
<path d="M0 0 C1.36125 0.8353125 1.36125 0.8353125 2.75 1.6875 C11.10425407 10.27381669 12.88925975 21.45840531 13 33 C12.06198236 45.29845351 8.36813558 55.68408255 -1 64 C-8.52545131 68.93516916 -16.12225513 69.8030121 -25 69 C-30.91788374 67.36992424 -35.01923414 64.60276052 -39 60 C-39.33 59.67 -39.66 59.34 -40 59 C-40.33 72.2 -40.66 85.4 -41 99 C-43.64 99 -46.28 99 -49 99 C-49.0231209 85.84850976 -49.04091379 72.69702431 -49.05181217 59.54551792 C-49.05704156 53.43943631 -49.0641402 47.33336856 -49.07543945 41.22729492 C-49.08626637 35.33994853 -49.09227642 29.45261551 -49.09487724 23.56525993 C-49.09673185 21.31367723 -49.10035313 19.06209531 -49.10573006 16.81051826 C-49.11293789 13.66866573 -49.11399105 10.52686917 -49.11352539 7.38500977 C-49.11712067 6.44418045 -49.12071594 5.50335114 -49.12442017 4.53401184 C-49.11405216 -1.88594784 -49.11405216 -1.88594784 -48 -3 C-45 -3.125 -45 -3.125 -42 -3 C-40.41727399 -1.41727399 -40.65264253 0.38034003 -40.4375 2.5625 C-40.35371094 3.38878906 -40.26992188 4.21507812 -40.18359375 5.06640625 C-40.12300781 5.70449219 -40.06242187 6.34257813 -40 7 C-39.1646875 6.18595703 -39.1646875 6.18595703 -38.3125 5.35546875 C-27.44177067 -4.83584 -13.52716694 -8.31326962 0 0 Z M-36.67578125 11.92578125 C-41.14300439 18.92311308 -41.49270515 24.76211984 -41.4375 32.9375 C-41.45748047 33.98357422 -41.47746094 35.02964844 -41.49804688 36.10742188 C-41.49294898 44.21817268 -39.90790413 49.54195185 -34.6875 55.75 C-28.34003867 61.06415367 -24.24872637 62.70719007 -15.93359375 62.375 C-9.60612977 61.56616306 -5.67268537 59.1998146 -1.6875 54.25 C5.16649796 44.22975299 6.42352654 32.19023893 4.375 20.375 C2.71036866 13.93611349 -0.76076824 7.92099222 -6.5625 4.4375 C-17.91137594 -0.28938307 -29.03068579 2.87871986 -36.67578125 11.92578125 Z " fill="#3758C3" transform="translate(444,790)"/>
<path d="M0 0 C2.31 0 4.62 0 7 0 C7.33 14.52 7.66 29.04 8 44 C10.31 41.69 12.62 39.38 15 37 C23.44574906 32.2803167 30.26602378 31.10372382 40 32 C48.07057247 34.32763141 53.98819769 39.6098741 58.05859375 46.89453125 C63.24889154 58.29331922 62.4336475 73.60059716 58.25390625 85.1640625 C54.02561352 94.72711709 48.52399773 99.81049 39.1875 104.375 C31.37290818 105.90727291 23.04757177 106.09848058 16 102 C9.70290965 97.4058193 9.70290965 97.4058193 8 94 C7.67 96.97 7.34 99.94 7 103 C4.69 103 2.38 103 0 103 C0 69.01 0 35.02 0 0 Z M13.125 46.9375 C6.02215497 55.67077082 6.38235106 66.16306863 7 77 C8.36845407 85.2430501 11.37296472 90.31599389 18.125 95.3125 C23.90608668 98.70574653 29.45623643 98.45249429 36 98 C42.67914389 95.98365468 46.92753255 90.57971651 50.33203125 84.69921875 C54.62086553 74.95462356 54.96178412 61.3417189 51.5 51.25 C49.13930512 46.41861371 45.43026278 42.97473497 41 40 C30.29936009 36.43312003 20.58975293 38.84558545 13.125 46.9375 Z " fill="#3758C3" transform="translate(657,754)"/>
<path d="M0 0 C2.31 0 4.62 0 7 0 C7.33 14.52 7.66 29.04 8 44 C10.475 41.525 10.475 41.525 13 39 C20.07633008 32.49742641 27.17400357 31.35961144 36.5234375 31.58984375 C43.3695782 32.39753451 48.67353795 35.23276812 53.375 40.25 C61.72449291 51.08305312 62.2516701 64.21630342 60.57421875 77.328125 C58.58824132 86.6366327 54.37907947 95.03151801 46.4375 100.5625 C39.0163381 105.15136525 31.56309928 105.97490684 23 105 C16.36858314 102.91199983 11.95016216 99.6618991 8 94 C7.67 96.97 7.34 99.94 7 103 C4.69 103 2.38 103 0 103 C0 69.01 0 35.02 0 0 Z M12 48 C6.01420068 58.1313698 5.65769736 69.44566452 7.4609375 80.9375 C9.44243534 87.65128091 13.61476457 92.8638465 19.625 96.4375 C25.36913984 98.98432592 32.12332586 99.21101281 38.11328125 97.33984375 C45.40023911 93.60749948 49.80334232 86.94192887 52.30859375 79.36328125 C54.23622135 69.9865165 54.89007118 57.55304585 50 49 C46.85187167 44.29173727 43.51272962 40.70393461 38 39 C27.19472528 37.87003663 19.07920191 39.34764211 12 48 Z " fill="#3758C3" transform="translate(792,754)"/>
<path d="M0 0 C5.6878385 0 8.71213197 0.26225067 13.875 1.9375 C15.57269531 2.47697266 15.57269531 2.47697266 17.3046875 3.02734375 C20 4 20 4 21 5 C21.09506052 7.55589888 21.12556761 10.08467972 21.11352539 12.64086914 C21.11367142 13.44080795 21.11381744 14.24074677 21.1139679 15.06492615 C21.11326855 17.72169665 21.10547518 20.37839793 21.09765625 23.03515625 C21.09579215 24.87218691 21.09436821 26.70921806 21.09336853 28.54624939 C21.08954275 33.39109662 21.07971196 38.23591408 21.06866455 43.08074951 C21.05845172 48.02062578 21.05387119 52.96050685 21.04882812 57.90039062 C21.03808974 67.60027563 21.02049246 77.30013069 21 87 C14.07 87 7.14 87 0 87 C0 58.29 0 29.58 0 0 Z " fill="#83C0FF" transform="translate(523,128)"/>
<path d="M0 0 C5.6358404 4.39103099 8.05232056 9.47773662 9.609375 16.25390625 C9.9888967 20.41865169 9.96049009 24.54745767 9.90234375 28.7265625 C9.89809891 29.89021835 9.89385406 31.05387421 9.88948059 32.25279236 C9.87279285 35.94090683 9.83515819 39.62845911 9.796875 43.31640625 C9.7818154 45.82876811 9.76812924 48.3411386 9.75585938 50.85351562 C9.72292177 56.98716845 9.67282158 63.12049717 9.609375 69.25390625 C7.299375 69.25390625 4.989375 69.25390625 2.609375 69.25390625 C2.279375 65.62390625 1.949375 61.99390625 1.609375 58.25390625 C0.97 59.14078125 0.330625 60.02765625 -0.328125 60.94140625 C-4.56544371 66.06504091 -11.32593945 69.82083473 -17.95703125 70.52734375 C-25.48759218 70.782617 -31.28107649 69.88642105 -37.390625 65.25390625 C-41.39219713 60.84664478 -43.28558213 56.2413496 -43.390625 50.25390625 C-42.75504505 43.99846147 -41.02045632 38.65279586 -36.390625 34.25390625 C-25.64498882 26.48495907 -10.18479526 25.8892332 2.609375 25.25390625 C0.82987086 14.62893303 0.82987086 14.62893303 -5.390625 6.25390625 C-13.07556706 3.6922589 -20.92756707 4.81897686 -28.1875 8.09765625 C-31.10162546 9.62705543 -33.74125124 11.30173611 -36.390625 13.25390625 C-36.74518325 10.18106804 -36.87824157 7.31741034 -36.390625 4.25390625 C-28.08161588 -4.05510287 -9.96055706 -6.10829033 0 0 Z M-9.890625 33.00390625 C-10.95539063 33.16117188 -12.02015625 33.3184375 -13.1171875 33.48046875 C-20.31312288 34.62969676 -28.12279551 35.88395709 -33.390625 41.31640625 C-35.49729082 45.39807128 -35.69866792 48.71027319 -35.390625 53.25390625 C-34.09952297 56.91202867 -32.72901507 58.92419285 -29.953125 61.62890625 C-24.15770345 64.27243187 -18.19391674 64.26811738 -12.046875 62.62890625 C-5.69221775 59.89151543 -2.09836651 54.66938928 0.921875 48.62890625 C2.60712756 42.80712468 2.72957054 37.26368322 2.609375 31.25390625 C-1.52344448 31.25390625 -5.81873553 32.36198485 -9.890625 33.00390625 Z " fill="#3758C3" transform="translate(324.390625,788.74609375)"/>
<path d="M0 0 C7.26695871 5.71361252 11.67520726 14.35350823 12.7890625 23.52734375 C13.65985443 36.35597487 12.078837 48.25523187 3.7890625 58.52734375 C0.98782786 60.98620527 -1.9121489 62.80697724 -5.2109375 64.52734375 C-5.82582031 64.86636719 -6.44070313 65.20539063 -7.07421875 65.5546875 C-14.98179665 69.22908665 -24.88393901 68.59951673 -33.0234375 66.02734375 C-41.53624288 62.44168493 -47.56152004 56.59582913 -51.27734375 48.1484375 C-55.4348577 36.47608661 -55.2897023 23.57655987 -50.55859375 12.0625 C-45.83406135 3.17490137 -38.82554058 -1.98264891 -29.359375 -5.078125 C-18.88364162 -7.00185058 -8.90180691 -5.92929541 0 0 Z M-39.05078125 8.51171875 C-45.39889003 17.26559003 -47.2249971 26.87971794 -46.2109375 37.52734375 C-44.82263645 45.53321312 -41.65319291 52.16497363 -35.08984375 57.1328125 C-28.12946044 61.2130372 -21.10786419 61.54387305 -13.2109375 60.52734375 C-7.14868211 58.7437694 -2.29515198 55.05501758 0.9453125 49.5703125 C6.01043323 39.8199551 6.43285144 27.60736651 3.7265625 16.96484375 C1.64396901 11.262041 -1.89237468 6.73723872 -6.953125 3.3671875 C-17.2347133 -1.37646375 -31.25192373 0.10021212 -39.05078125 8.51171875 Z " fill="#3758C3" transform="translate(550.2109375,791.47265625)"/>
<path d="M0 0 C2.64 0 5.28 0 8 0 C8 22.11 8 44.22 8 67 C1.07 67 -5.86 67 -13 67 C-13.22306375 59.45625099 -13.386072 51.91443476 -13.49438477 44.36816406 C-13.5395487 41.80337066 -13.60089601 39.23880776 -13.67895508 36.67480469 C-13.78857927 32.98054112 -13.83926757 29.28934739 -13.87890625 25.59375 C-13.92535782 24.4538562 -13.97180939 23.3139624 -14.01966858 22.13952637 C-14.024624 14.26282502 -14.024624 14.26282502 -11.00900269 10.54614258 C-8.57397461 8.40039062 -8.57397461 8.40039062 -6.13926697 6.60021973 C-3.76637844 5.00346728 -3.76637844 5.00346728 -1.9375 2 C-1.298125 1.34 -0.65875 0.68 0 0 Z " fill="#83C0FF" transform="translate(443,144)"/>
<path d="M0 0 C0 6.6 0 13.2 0 20 C5.94 20 11.88 20 18 20 C18 22.31 18 24.62 18 27 C12.06 27 6.12 27 0 27 C0.09369562 33.86872712 0.1998267 40.73710848 0.31738281 47.60546875 C0.35561754 49.94102748 0.39047995 52.276644 0.421875 54.61230469 C0.4676447 57.97351705 0.52562036 61.33433355 0.5859375 64.6953125 C0.60326431 66.25658371 0.60326431 66.25658371 0.62094116 67.84939575 C0.75303932 75.1278006 0.75303932 75.1278006 3 82 C7.28534391 84.85689594 10.96398073 84.34655647 15.9375 83.5 C16.618125 83.335 17.29875 83.17 18 83 C18 85.31 18 87.62 18 90 C12.04279032 92.32476475 7.46779835 92.75288763 1.3125 90.875 C-2.89234947 88.49489653 -5.11672152 85.77060919 -6.59446716 81.13531494 C-7.06879357 78.63777057 -7.11969762 76.31541747 -7.11352539 73.77246094 C-7.11344986 72.73168396 -7.11337433 71.69090698 -7.11329651 70.61859131 C-7.10813522 69.50179993 -7.10297394 68.38500854 -7.09765625 67.234375 C-7.0962413 66.08584045 -7.09482635 64.93730591 -7.09336853 63.75396729 C-7.08777143 60.08595169 -7.07521944 56.41799715 -7.0625 52.75 C-7.05748463 50.26302171 -7.05292178 47.77604247 -7.04882812 45.2890625 C-7.03780295 39.19268481 -7.02054027 33.09635276 -7 27 C-11.29 27 -15.58 27 -20 27 C-20 21 -20 21 -19 20 C-14.99779347 19.85644883 -11.00558317 19.95783597 -7 20 C-7 14.06 -7 8.12 -7 2 C-1 0 -1 0 0 0 Z " fill="#3759C4" transform="translate(364,767)"/>
<path d="M0 0 C2.31 0 4.62 0 7 0 C7 33.99 7 67.98 7 103 C4.36 103 1.72 103 -1 103 C-1.02312079 89.71812591 -1.04091374 76.43625657 -1.05181217 63.15436649 C-1.05704158 56.9877508 -1.06414027 50.82114882 -1.07543945 44.65454102 C-1.08626629 38.70883994 -1.0922764 32.76315211 -1.09487724 26.81744194 C-1.09673186 24.54353057 -1.10035317 22.26961996 -1.10573006 19.99571419 C-1.11293778 16.8227288 -1.11399106 13.64979883 -1.11352539 10.47680664 C-1.11712067 9.52662659 -1.12071594 8.57644653 -1.12442017 7.59747314 C-1.11405216 1.11405216 -1.11405216 1.11405216 0 0 Z " fill="#3759C4" transform="translate(735,754)"/>
<path d="M0 0 C2.31 0 4.62 0 7 0 C7 33.99 7 67.98 7 103 C4.69 103 2.38 103 0 103 C0 69.01 0 35.02 0 0 Z " fill="#3758C3" transform="translate(473,754)"/>
<path d="M0 0 C6.93 0 13.86 0 21 0 C21 9.24 21 18.48 21 28 C14.07 28 7.14 28 0 28 C0 18.76 0 9.52 0 0 Z " fill="#84C1FF" transform="translate(399,170)"/>
<path d="M0 0 C2.31 0 4.62 0 7 0 C7 23.1 7 46.2 7 70 C4.69 70 2.38 70 0 70 C0 46.9 0 23.8 0 0 Z " fill="#3759C4" transform="translate(763,787)"/>
<path d="M0 0 C6.93 0 13.86 0 21 0 C21 6.6 21 13.2 21 20 C14.07 20 7.14 20 0 20 C0 13.4 0 6.8 0 0 Z " fill="#84C1FF" transform="translate(727,316)"/>
<path d="M0 0 C6.93 0 13.86 0 21 0 C21 6.6 21 13.2 21 20 C14.07 20 7.14 20 0 20 C0 13.4 0 6.8 0 0 Z " fill="#84C1FF" transform="translate(757,313)"/>
<path d="M0 0 C6.93 0 13.86 0 21 0 C21 6.6 21 13.2 21 20 C14.07 20 7.14 20 0 20 C0 13.4 0 6.8 0 0 Z " fill="#84C1FF" transform="translate(727,276)"/>
<path d="M0 0 C6.93 0 13.86 0 21 0 C21 6.6 21 13.2 21 20 C14.07 20 7.14 20 0 20 C0 13.4 0 6.8 0 0 Z " fill="#84C1FF" transform="translate(757,273)"/>
<path d="M0 0 C6.93 0 13.86 0 21 0 C21 6.6 21 13.2 21 20 C14.07 20 7.14 20 0 20 C0 13.4 0 6.8 0 0 Z " fill="#84C1FF" transform="translate(727,236)"/>
<path d="M0 0 C6.93 0 13.86 0 21 0 C21 6.6 21 13.2 21 20 C14.07 20 7.14 20 0 20 C0 13.4 0 6.8 0 0 Z " fill="#84C1FF" transform="translate(757,233)"/>
<path d="M0 0 C6.93 0 13.86 0 21 0 C21 6.6 21 13.2 21 20 C14.07 20 7.14 20 0 20 C0 13.4 0 6.8 0 0 Z " fill="#84C1FF" transform="translate(727,196)"/>
<path d="M0 0 C6.93 0 13.86 0 21 0 C21 6.6 21 13.2 21 20 C14.07 20 7.14 20 0 20 C0 13.4 0 6.8 0 0 Z " fill="#84C1FF" transform="translate(757,193)"/>
<path d="M0 0 C6.93 0 13.86 0 21 0 C21 6.6 21 13.2 21 20 C14.07 20 7.14 20 0 20 C0 13.4 0 6.8 0 0 Z " fill="#84C1FF" transform="translate(727,156)"/>
<path d="M0 0 C6.93 0 13.86 0 21 0 C21 6.6 21 13.2 21 20 C14.07 20 7.14 20 0 20 C0 13.4 0 6.8 0 0 Z " fill="#84C1FF" transform="translate(757,153)"/>
<path d="M0 0 C6.93 0 13.86 0 21 0 C21 6.6 21 13.2 21 20 C14.07 20 7.14 20 0 20 C0 13.4 0 6.8 0 0 Z " fill="#84C1FF" transform="translate(727,116)"/>
<path d="M0 0 C6.93 0 13.86 0 21 0 C21 6.6 21 13.2 21 20 C14.07 20 7.14 20 0 20 C0 13.4 0 6.8 0 0 Z " fill="#84C1FF" transform="translate(757,113)"/>
<path d="M0 0 C6.93 0 13.86 0 21 0 C21 6.6 21 13.2 21 20 C14.07 20 7.14 20 0 20 C0 13.4 0 6.8 0 0 Z " fill="#84C1FF" transform="translate(727,76)"/>
<path d="M0 0 C2 2 2 2 2.3125 4.9375 C2 8 2 8 0.875 9.9375 C-1 11 -1 11 -4.0625 10.8125 C-7 10 -7 10 -9 8 C-8.75 4.4375 -8.75 4.4375 -8 1 C-5.23749964 -0.38125018 -3.05268901 -0.19079306 0 0 Z " fill="#3758C3" transform="translate(770,760)"/>
</svg>
